<?xml version="1.0" encoding="utf-8"?>
<!-- Generator: Adobe Illustrator 16.0.0, SVG Export Plug-In . SVG Version: 6.00 Build 0)  -->
<!DOCTYPE svg PUBLIC "-//W3C//DTD SVG 1.1//EN" "http://www.w3.org/Graphics/SVG/1.1/DTD/svg11.dtd">
<svg version="1.1" xmlns="http://www.w3.org/2000/svg" xmlns:xlink="http://www.w3.org/1999/xlink" x="0px" y="0px" width="1000px"
	 height="1555px" viewBox="0 0 1000 1555" enable-background="new 0 0 1000 1555" xml:space="preserve">
<g id="Layer_2" display="none">
	<g display="inline">
		<g>
			<path fill="#EEFF8A" d="M547.668,229.333c6.448,0,6.448-10,0-10S541.22,229.333,547.668,229.333L547.668,229.333z"/>
		</g>
	</g>
	<g display="inline">
		<g>
			<path fill="#EEFF8A" d="M582.335,239.333c-11.177,0.463-22.321-0.198-33.456-1.151c-7.949-0.68-15.979-1.904-23.972-1.844
				c-5.867,0.044-12.097,1.475-15.742,6.43c-4.312,5.861-3.037,14.475-0.824,20.882c5.723,16.567,24.278,16.164,38.729,16.359
				c7.135,0.097,14.272,1.394,21.39,1.87c5.634,0.377,13.585,1.086,18.398-2.562c-2.02-2.618-4.039-5.235-6.059-7.853
				c-2.593,2.306-4.375,5.096-5.671,8.298c-1.14,2.817-1.615,6.685-3.517,9.108c1.479-0.09,1.724-0.103,0.73-0.04
				c-0.478,0.02-0.954,0.029-1.432,0.028c-1.261,0.012-2.522-0.038-3.782-0.075c-3.258-0.098-6.514-0.255-9.773-0.305
				c-7.79-0.12-15.63,0.962-23.437,1.104c-8.118,0.148-19.529,0.637-26.246-4.786c-5.184-4.185-6.825-11.503-8.438-17.619
				c-1.689-6.402-3.517-12.756-4.935-19.225c-1.559-7.118-3.022-14.255-5.108-21.243c-1.737-5.818-4.027-12.394-8.655-16.58
				c-2.444-2.21-6.066-1.798-7.853,1.012c-0.919,1.445-3.065,2.445-1.477,3.117c-1.371-0.58-1.998-2.664-2.449-3.965
				c-1.34-3.866-1.88-9.032,0.12-12.76c0.886-1.651,2.158-2.798,3.744-3.754c0.61-0.368,1.326-0.664,2.035-0.698
				c-1.832,0.087-1.278-2.137-1.811,0.587c-0.412,2.104-4.728,3.449-6.366,4.374c-2.717,1.534-4.986,3.682-6.464,6.432
				c-1.257,2.339-0.663,5.508,1.794,6.841c11.811,6.407,28.102-5.717,24.012-18.979c-0.997-3.234-5.901-5.333-8.357-2.207
				c-5.124,6.525-5.672,12.688,0.798,18.405c3.163,2.795,5.56,5.103,5.204,9.597c-0.362,4.574,0.464,8.306,3.216,12.057
				c2.28-2.28,4.561-4.561,6.841-6.841c-1.272-0.722-2.471-1.325-3.861-1.837c1.224,1.607,2.447,3.214,3.671,4.821
				c0.055-4.822,0.716-9.678,1.454-14.435c0.455-2.933,1.027-5.849,1.758-8.726c0.266-1.046,0.592-2.073,0.948-3.091
				c1.103-3.162,0.128,3.199-4.695-0.879c2.02-2.618,4.04-5.235,6.059-7.853c-7.138-4.981-15.755-4.108-17.981,5.285
				c-2.079,8.771,0.221,18.858,2.096,27.466c0.662,3.039,1.394,6.086,2.358,9.044c1.179,3.612,1.458,7.433,1.84,11.19
				c0.424,4.162,2.004,8.417,2.133,12.532c0.411,13.143,17.732,10.806,26.359,7.621c3.353-1.237,5.151-5.594,2.206-8.357
				c-2.911-2.732-16.487-8.793-12.667-13.596c-2.785-0.735-5.571-1.471-8.356-2.207c1.782,6.25,0.577,12.938,0.488,19.338
				c3.333,0,6.667,0,10,0c0.224-17.587,6.575-36.35,13.984-52.144c2.238-4.771-4.069-10.799-7.853-6.059
				c-6.736,8.439-9.929,19.496-17.334,27.333c2.786,0.735,5.571,1.471,8.357,2.207c-0.669-2.951,0.036-4.931,2.047-7.135
				c-2.785-0.735-5.571-1.471-8.356-2.207c2.646,10.517-3.331,21.704-3.663,32.312c-0.377,12.042,7.324,23.42,12.833,33.549
				c3.092,5.684,11.583,0.66,8.635-5.047c-0.814-1.577-1.509-3.072-1.92-4.801c0.177,0.743-0.916,2.229-1.799,2.271
				c2.049-0.098,4.62,1.042,6.641,1.774c4.933,1.787,9.611,3.909,14.724,5.167c7.447,1.833,15.235,2.957,22.906,3.048
				c6.438,0.077,13.412-0.924,17.448-6.413c-2.878-1.682-5.757-3.365-8.635-5.047c-3.618,6.864-16.878,4.81-23,4.125
				c-8.618-0.964-18.458-3.089-26.159-6.585c-3.559-1.616-7.225,0.315-7.523,4.317c-0.134,1.79-0.532,3.539-0.666,5.333
				c3.333,0,6.667,0,10,0c-0.853-11.413-4.959-22.008-7.486-33.082c-0.886-3.879-3.28-12.363,1.749-13.747
				c3.15-0.867,6.645-0.788,9.881-0.903c6.127-0.218,12.254-0.389,18.386-0.407c11.604-0.033,23.207,0.717,34.475,3.626
				c-0.398-3.046-0.797-6.092-1.194-9.139c-3.842,1.911-9.16,1.555-13.31,1.484c-5.2-0.089-10.668-0.624-15.505-2.654
				c0.398,3.046,0.796,6.092,1.194,9.139c8.529-6.072,19.809-8.51,30.144-8.651c2.592-0.035,5.176-2.25,5-5
				c-0.302-4.732-2.474-8.268-5.254-11.978c-4.093-5.461-4.606-8.972-2.478-15.547c1.91-5.9,4.283-11.862,3.17-18.188
				c-0.534-3.039,0.282-7.98-3.131-9.584c-2.787-1.31-7.681-1.28-10.644-1.082c-6.423,0.43-12.837,1.597-19.283,2.093
				c-6.611,0.508-13.258,1.273-19.889,1.433c-5.569,0.134-11.03-0.049-16.571,0.707c-21.127,2.885-12.979,32.511-7.915,45.807
				c3.726,9.784,12.836,12.479,22.352,13.68c10.531,1.33,22.731,2.644,32.975-0.778c4.302-1.437,9.312-4.552,11.058-8.889
				c1.884-4.682-0.708-12.766-6.387-13.66c-5.708-0.899-11.221,2.145-16.738,3.356c-8.621,1.894-17.483,2.114-26.265,1.629
				c0,3.333,0,6.667,0,10c6.021-0.108,12.045-1.405,18.03-2.007c3.545-0.356,14.616-2.279,16.985,1.53
				c2.02,3.248,6.607,3.21,8.635,0c7.56-11.967,8.295-26.921,10.504-40.528c0.422-2.598-0.631-5.487-3.492-6.15
				c-9.623-2.231-19.557-1.997-29.36-1.57c-8.844,0.385-17.646,0.273-26.47,0.499c-7.814,0.2-12.446,7.682-13.016,14.874
				c-0.706,8.915,5.703,14.031,12.327,18.669c3.906,2.735,8.125-1.746,7.345-5.646c-1.338-6.692,2.577-17.264-6.159-20.159
				c-5.384-1.784-8.876,6.536-3.853,9.139c10.062,5.213,19.86,1.853,29.808-1.783c4.23-1.546,9.012-3.399,13.597-2.663
				c2.187,0.351,4.185,1.512,6.084,2.59c-3.808-2.162,0.297-7.289-1.752-4.417c-0.771,1.082-1.328,2.26-1.824,3.489
				c-1.576,3.902-1.356,8.303-3.053,12.231c-0.65,1.504-4.941,2.901-7.421,3.667c-4.097,1.267-8.327,1.959-12.614,1.959
				c-1.439,0-3.137-0.096-4.475-0.697c-2.231-1.001,0.778-0.668-1.907,1.133c1.521-1.021,6.021-0.386,8.172-0.257
				c3.316,0.199,6.702,0.73,10.025,0.411c7.562-0.727,19.245-10.927,9.276-17.278c-6.582-4.193-14.35-2.067-21.504-1.148
				c-3.154,0.405-6.353,0.726-9.535,0.59c-1.705-0.073,0.494,0.188-0.823-0.144c5.559,1.404,0.431,6.998,2.444,5.159
				c1.718-1.568,3.918-1.688,6.12-1.697c4.957-0.021,10.342,1.678,14.684,3.998c1.088,0.581,4.503,3.272,3.85,4.818
				c-0.91,2.153-4.551-0.593-5.438-1.265c-5.144-3.897-10.117,4.794-5.047,8.635c7.709,5.84,21.521,3.018,20.327-8.642
				c-1.131-11.053-13.972-15.521-23.277-17.039c-4.601-0.751-9.912-0.966-14.177,1.258c-3.017,1.573-7.068,4.493-7.042,8.337
				c0.055,7.75,10.191,6.786,15.374,6.281c3.268-0.318,6.523-0.804,9.765-1.324c1.212-0.194,2.333-0.334,3.565-0.392
				c1.172-0.055,2.312,0.061,3.457,0.286c3.476,0.684-0.409,1.29,1.3-2.501c-2.063,4.577-15.103,1.357-19.461,1.549
				c-8.14,0.357-13.235,5.71-9.625,13.727c3.532,7.844,16.216,6.433,22.813,5.381c6.865-1.094,15.104-3.363,19.473-9.135
				c2.386-3.153,3.131-8.727,3.564-12.537c0.354-3.101,4.312-5.799,2.979-9.183c-3.271-8.293-16.298-8.621-23.491-7.041
				c-9.143,2.008-19.801,9.859-29.164,5.007c-1.284,3.046-2.568,6.093-3.853,9.139c-1.751-0.58-1.558-1.997-1.401-0.408
				c0.146,1.49,0.06,3.019,0.029,4.513c-0.062,3.065-0.057,6.05,0.547,9.069c2.448-1.882,4.896-3.764,7.345-5.646
				c-4.383-3.069-8.524-5.605-6.919-11.49c1.493-5.472,7.426-3.175,11.812-3.202c14.519-0.087,29.592-2.825,43.92,0.497
				c-1.164-2.05-2.328-4.1-3.492-6.15c-2.051,12.627-2.485,27.041-9.496,38.139c2.878,0,5.757,0,8.635,0
				c-4.144-6.664-12.816-7.082-19.881-6.882c-7.973,0.226-15.812,2.263-23.77,2.405c-6.483,0.116-6.403,9.646,0,10
				c13.282,0.734,26.461-0.546,39.03-4.962c0.782-0.275,1.264-1.065,1.086,0.06c-0.066,0.421-1.662,1.212-1.911,1.366
				c-1.935,1.195-3.728,1.901-5.952,2.392c-5.845,1.289-12.317,0.672-18.234,0.285c-4.814-0.315-9.628-0.722-14.318-1.903
				c-4.824-1.215-6.991-4.221-8.212-8.9c-2.123-8.142-5.309-17.163-3.936-25.701c1.166-7.247,17.875-4.253,23.114-4.637
				c7.431-0.543,14.857-1.143,22.285-1.714c5.34-0.411,11.704-2.436,16.973-1.599c1.545,0.246,3.072,0.369,4.634,0.319
				c-4.834,0.155-4.49-7.182-4.59-3.746c-0.024,0.833,0.075,1.66,0.165,2.486c0.365,3.344,0.73,6.086-0.044,9.429
				c-0.84,3.623-2.349,7.091-3.395,10.658c-1.582,5.39-1.17,10.351,1.213,15.385c1.813,3.832,6.812,7.395,7.092,11.782
				c1.667-1.667,3.333-3.333,5-5c-11.961,0.163-25.308,2.98-35.19,10.016c-3.76,2.677-2.876,7.43,1.194,9.139
				c5.621,2.361,12.137,2.806,18.163,3.012c6.082,0.208,12.816-0.094,18.356-2.849c3.935-1.957,2.822-8.102-1.194-9.139
				c-12.732-3.287-25.882-4.015-38.982-3.978c-6.539,0.019-13.098,0.2-19.628,0.531c-3.84,0.194-7.98,0.378-11.579,1.848
				c-6.994,2.857-8.317,9.569-7.89,16.466c0.834,13.489,7.413,25.833,8.417,39.288c0.48,6.44,9.52,6.44,10,0
				c0.134-1.79,0.532-3.539,0.666-5.333c-2.508,1.439-5.016,2.878-7.523,4.317c10.102,4.585,21.375,6.851,32.341,8.078
				c10.071,1.126,25.002,1.227,30.5-9.205c3.066-5.819-4.878-10.155-8.635-5.047c-1.175,1.597-6.006,1.396-7.683,1.449
				c-4.3,0.138-8.646-0.338-12.888-0.994c-6.352-0.982-12.441-2.554-18.391-4.96c-5.115-2.068-11.325-5.132-16.97-3.624
				c-8.28,2.213-4.697,12.09-2.069,17.175c2.878-1.682,5.757-3.365,8.635-5.047c-5.362-9.859-12.2-19.875-11.302-31.572
				c0.84-10.927,5.941-20.768,3.14-31.9c-0.893-3.549-5.828-4.978-8.357-2.207c-4.484,4.916-6.097,10.338-4.619,16.865
				c0.825,3.644,5.84,4.87,8.357,2.207c7.54-7.981,10.558-18.845,17.333-27.333c-2.617-2.02-5.234-4.04-7.853-6.059
				c-8.185,17.446-15.103,37.747-15.35,57.19c-0.082,6.452,9.911,6.443,10,0c0.102-7.369,1.211-14.785-0.846-21.996
				c-0.94-3.299-5.921-5.268-8.357-2.207c-3.999,5.026-5.541,10.914-1.373,16.407c3.759,4.954,9.612,7.178,14.04,11.332
				c0.735-2.786,1.471-5.571,2.206-8.357c-3.688,1.361-8.635,2.86-12.599,2.223c-0.815-0.131-1.705-0.845-2.402-1.261
				c1.722,1.027,1.144,3.905,1.28,1.661c0.158-2.585-0.63-5.129-1.243-7.605c-1.54-6.215-0.776-13.028-2.972-19.097
				c-0.752-2.08-1.255-4.268-1.78-6.412c-1.608-6.561-2.868-13.278-3.062-20.044c-0.067-2.351,0.152-5.512,0.92-6.851
				c0.025-0.044-1.12,0.535-0.579,0.553c0.153,0.005,2.436,1.409,3.242,1.971c4.649,3.245,10.386-4.194,6.059-7.853
				c-13.617-11.515-16.462,27.743-16.536,34.202c-0.027,2.363,1.576,4.049,3.671,4.821c0.522,0.192,0.991,0.556,1.473,0.83
				c4.068,2.308,9.952-2.6,6.841-6.841c-2.108-2.874-2.035-4.689-1.766-8.085c0.241-3.044-0.688-5.805-1.987-8.5
				c-1.197-2.484-3.414-4.615-5.447-6.414c-0.986-0.873-1.968-1.721-2.878-2.675c-0.176-0.184,0.145-0.802,1.296-2.268
				c-2.786-0.735-5.571-1.471-8.357-2.207c1.418,4.598-4.969,10.048-9.322,7.687c0.598,2.28,1.196,4.561,1.794,6.841
				c2.14-3.982,8.004-5.1,11.179-8.306c3.536-3.571,4.159-10.009,1.863-14.339c-4.807-9.063-17.507-0.74-21.009,4.932
				c-4.677,7.574-3.594,17.953,0.32,25.617c1.925,3.77,5.236,6.17,9.413,6.6c4.84,0.498,8.646-4.289,10.902-7.836
				c-2.618,0.337-5.235,0.675-7.853,1.012c4.525,4.093,5.977,11.471,7.472,17.107c1.99,7.506,3.333,15.165,5.192,22.702
				c3.328,13.485,5.973,30.964,19.367,38.219c8.259,4.473,19.299,4.413,28.421,4.352c8.856-0.059,17.258-1.254,25.478-1.065
				c4.959,0.114,13.272,2.056,17.584-1.114c6.357-4.674,5.188-13.796,10.89-18.869c4.202-3.738-1.514-11.298-6.059-7.853
				c-3.315,2.513-9.516,1.417-13.352,1.197c-5.969-0.342-11.901-1.144-17.855-1.658c-10.255-0.886-25.855,2.562-32.065-8.095
				c-2.034-3.492-3.908-11.163-0.478-14.368c2.773-2.591,9.693-1.431,13-1.201c17.121,1.191,34.062,3.489,51.273,2.776
				C588.76,249.067,588.785,239.066,582.335,239.333L582.335,239.333z"/>
		</g>
	</g>
	<g display="inline">
		<g>
			<path fill="#EEFF8A" d="M550.335,197.333c6.448,0,6.448-10,0-10S543.887,197.333,550.335,197.333L550.335,197.333z"/>
		</g>
	</g>
	<g display="inline">
		<g>
			<path fill="#EEFF8A" d="M567.002,225.333c6.448,0,6.448-10,0-10S560.554,225.333,567.002,225.333L567.002,225.333z"/>
		</g>
	</g>
	<g display="inline">
		<g>
			<path fill="#EEFF8A" d="M539.002,230c6.448,0,6.448-10,0-10S532.554,230,539.002,230L539.002,230z"/>
		</g>
	</g>
	<g display="inline">
		<g>
			<path fill="#EEFF8A" d="M524.335,286c-0.801,0.134-1.601,0.136-2.398,0.007c0.684,1.277,1.09,1.162,1.22-0.345
				c-1.607,1.224-3.214,2.447-4.821,3.671c11.211,1.044,22.457,0.846,33.7,0.717c4.775-0.055,9.796-0.46,14.523,0.361
				c3.079,0.536,3.166-7.397,0.378-6.365c-1.53,0.567-3.216,0.824-4.828,1.01c-4.661,0.539-9.404,0.311-14.086,0.693
				c-5.804,0.475-11.576,1.296-17.375,1.833c-5.372,0.498-9.954,0.145-15.221-0.952c-5.042-1.05-9.648-1-14.282,1.384
				c2.28,2.28,4.561,4.561,6.841,6.841c6.233-10.608,4.146-24.881,3.404-36.556c-0.418-6.587-0.808-13.192-0.374-19.788
				c0.293-4.475,1.171-10.444,5.176-13.196c3.023-2.077,3.428-6.642,0-8.635c-7.109-4.133-8.088-11.972-3.539-18.492
				c-3.046-0.398-6.093-0.796-9.139-1.194c2.008,11.713,11.101,18.394,22.817,15.492c6.257-1.549,3.603-11.193-2.658-9.643
				c-6.681,1.654-9.464-2.368-10.517-8.508c-0.801-4.674-6.933-4.356-9.139-1.194c-7.66,10.979-4.383,25.482,7.127,32.174
				c0-2.878,0-5.756,0-8.635c-10.96,7.53-10.662,22.482-10.163,34.377c0.301,7.176,0.97,14.33,1.12,21.512
				c0.118,5.667,0.213,12.193-2.751,17.238c-2.643,4.497,2.499,9.075,6.841,6.841c5.049-2.597,12.32,1.395,17.758,1.33
				c6.895-0.083,13.779-1.159,20.622-1.896c5.844-0.629,11.696-0.515,17.537-1.028c3.452-0.304,7.918-0.742,10.781-2.935
				c2.766-2.119,4.097-6.171,1.238-8.938c-2.86-2.768-7.339-2.888-11.073-3.112c-14.898-0.895-29.805,0.65-44.72-0.739
				c-2.298-0.214-4.128,1.706-4.821,3.671c-2.798,7.929,2.943,13.565,10.821,12.996C530.728,295.538,530.772,285.535,524.335,286
				L524.335,286z"/>
		</g>
	</g>
	<g display="inline">
		<g>
			<path fill="#EEFF8A" d="M474.668,246.333c0.197,11.89,3.976,23.241,4.784,35.046c0.412,6.015-0.592,12.175-1.608,18.09
				c-1.186,6.909-2.803,13.779-5.218,20.367c-1.158,3.157-3.852,10.174-7.624,10.163c1.439,2.508,2.878,5.016,4.317,7.523
				c6.776-9.839,11.295-20.912,13.945-32.537c2.439-10.7,0.224-24.822,8.606-33.118c2.099-2.077,1.689-4.95,0-7.071
				c-1.53-1.92-2.023-4.366-4-6c-3.403-2.812-8.242-1.021-8.536,3.536c-0.649,10.063,1.653,24.279,10.131,30.869
				c2.37,1.842,6.257,2.15,7.853-1.012c3.859-7.644-0.366-12.715-3.333-19.714c-2.059-4.857-9.209-2.027-9.317,2.523
				c-0.237,10.015-4.892,19.933-3.155,29.996c0.584,3.382,4.709,4.303,7.345,2.988c18.808-9.377,41.535-7.407,61.8-5.595
				c3.206,0.287,7.365,0.096,10.363,1.496c0.664,0.31,0.237,0.051,0.306,0.247c0.371,1.058,0.519,2.213,0.712,3.312
				c0.675,3.831,1.47,7.677,2.719,11.364c1.614,4.764,4.582,9.125,5.244,14.192c2.109-1.607,4.22-3.214,6.329-4.821
				c-7.163-1.962-14.24-2.429-20.198,2.619c-3.566,3.021-0.451,8.324,3.535,8.536c2.779,0.147,5.227,0.286,7.996-0.179
				c5.681-0.953,4.17-9.832-1.329-9.821c-17.237,0.033-34.685-0.049-51.891,0.976c-6.95,0.414-13.886,0.981-20.851,1.116
				c-5.816,0.112-12.614,0.303-18.068-2.076c0.598,2.28,1.196,4.561,1.794,6.841c0.222-0.447,1.552-1.049,2.937-1.494
				c2.791-0.895,5.754-1.338,8.655-1.686c6.229-0.745,12.53-0.926,18.798-0.996c17.869-0.199,35.977,2.045,53.708-1.098
				c5.771-1.023,9.051-7.958,3.068-11.454c-7.456-4.358-15.661-4.236-23.979-3.483c-20.916,1.896-41.575-5.438-62.167,1.531
				c-4.198,1.421-5.308,8.884,0,9.643c4.943,0.707,9.7,0.799,14.663,0.179c4.251-0.532,6.717-5.063,3.536-8.536
				c-1.934-2.11-7.29-4.062-7.203-7.131c-2.845,1.179-5.69,2.357-8.536,3.536c9.255,8.391,25.284,6.023,36.663,5.248
				c15.498-1.055,31.646,2.394,46.869-1.296c2.397-0.581,4.529-3.687,3.492-6.15c-2.959-7.033-9.906-9.743-16.945-11.283
				c-9.03-1.975-18.494-2.137-27.698-2.115c-6.611,0.016-13.226,0.475-19.835,0.381c-6.16-0.087-14.244-0.811-19.767,2.388
				c-3.037,1.759-4.034,5.864-1.973,8.738c3.279,4.574,8.678,4.624,13.674,3.379c2.335-0.582,4.532-1.764,6.938-2.047
				c3.749-0.442,7.524-0.661,11.294-0.84c7.478-0.357,15.057,0.215,22.502-0.509c5.792-0.563,11.458-1.875,17.31-1.691
				c2.086,0.066,4.431,0.726,6.456,1.239c0.746,0.189,0.799,0.827,1.104,0.193c0.299-0.623-1.039,0.199-1.731,0.369
				c-3.45,0.847-7.384,0.307-10.896,0.158c-0.707-0.029-4.303,0.39-1.908,0.069c-0.774,0.104-1.554,0.178-2.332,0.254
				c-12.568,1.23-26.082,2.057-38.543-0.341c-2.601-0.501-4.752-1.065-6.76-2.329c-0.321-0.202-0.474,0.296-0.183-0.339
				c1.808-3.939,5.136-5.598,9.198-3.86c5.156,2.207,9.492,5.485,15.273,5.85c6.442,0.406,6.403-9.596,0-10
				c-4.377-0.276-8.476-3.964-12.526-5.461c-5.167-1.909-10.446-1.679-14.911,1.756c-4.75,3.654-9.151,10.37-6.018,16.396
				c2.484,4.777,8.369,6.61,13.267,7.63c6.85,1.427,13.977,1.654,20.951,1.662c6.113,0.006,12.234-0.288,18.327-0.79
				c1.491-0.123,2.984-0.256,4.468-0.455c3.043-0.408-0.101-0.116,2.44-0.009c2.189,0.092,4.372,0.179,6.563,0.143
				c7.56-0.122,19.917-5.14,13.944-14.994c-5.644-9.311-20.114-7.322-29.157-6.035c-15.402,2.192-31.526-0.952-46.512,3.978
				c-1.143,0.376-2.322,0.71-3.525,0.817c-2.385,0.214-2.907,5.974-0.799,5.406c2.019-0.544,4.193-0.56,6.267-0.654
				c3.217-0.146,6.432-0.03,9.649-0.065c9.688-0.106,19.34-0.6,29.031-0.167c5.269,0.236,10.516,0.747,15.653,1.973
				c2.203,0.526,7.202,1.816,8.064,3.865c1.164-2.05,2.328-4.1,3.492-6.15c-13.255,3.212-27.396-0.105-40.878,0.716
				c-6.126,0.374-12.233,0.87-18.375,0.857c-4.366-0.008-11.062,0.208-14.549-2.954c-3.238-2.936-8.408-0.935-8.536,3.536
				c-0.223,7.807,5.694,9.358,10.131,14.202c1.179-2.845,2.357-5.69,3.536-8.536c-3.976,0.497-8.018,0.749-12.004,0.179
				c0,3.214,0,6.428,0,9.643c9.093-3.077,18.274-3.331,27.771-2.674c9.112,0.629,18.25,2.651,27.392,1.907
				c7.62-0.621,15.306-2.112,22.499,1.256c2.258-2.855,2.568-5.04,0.932-6.555c-0.586,0.146-1.178,0.263-1.774,0.354
				c-1.416,0.251-2.88,0.321-4.311,0.452c-4.781,0.438-9.553,0.66-14.354,0.697c-14.145,0.111-28.232-0.996-42.377-0.232
				c-7.885,0.426-23.863,0.267-28.091,8.784c-1.097,2.21-0.823,5.7,1.794,6.841c12.719,5.547,27.956,3.392,41.392,2.491
				c18.054-1.21,36.372-1.107,54.465-1.142c-0.443-3.274-0.886-6.547-1.329-9.821c-1.761,0.295-3.575-0.085-5.338-0.179
				c1.179,2.845,2.357,5.69,3.535,8.536c2.804-2.375,7.341-0.904,10.47-0.048c2.823,0.773,6.76-1.523,6.329-4.821
				c-0.733-5.612-2.888-10.275-5.058-15.44c-1.794-4.271-2.596-8.988-3.396-13.533c-1.341-7.611-6.672-10.052-13.834-10.931
				c-24.157-2.965-51.48-4.926-73.903,6.253c2.448,0.996,4.896,1.992,7.345,2.988c-0.718-4.159,0.782-9.099,1.532-13.159
				c0.863-4.674,1.868-9.413,1.98-14.179c-3.106,0.841-6.211,1.683-9.317,2.523c1.099,2.591,4.761,6.792,3.333,9.62
				c2.618-0.337,5.235-0.675,7.853-1.012c-6.525-5.072-7.698-16.119-7.203-23.798c-2.845,1.179-5.69,2.357-8.536,3.536
				c1.662,1.373,2.603,4.246,4,6c0-2.357,0-4.714,0-7.071c-8.42,8.333-8.802,19.498-9.944,30.603
				c-1.357,13.183-6.703,26.233-14.17,37.076c-2.205,3.202,0.745,7.513,4.317,7.523c15.046,0.044,19.479-22.794,21.741-33.9
				c1.31-6.432,2.236-12.967,2.721-19.513c1.005-13.555-4.572-26.741-4.796-40.253C484.562,239.892,474.562,239.881,474.668,246.333
				L474.668,246.333z"/>
		</g>
	</g>
	<g display="inline">
		<g>
			<path fill="#EEFF8A" d="M506.489,303.004c-1.225-7.023-6.51-10.396-12.297-13.655c-2.275-1.281-5.581-0.658-6.841,1.794
				c-1.446,2.814-1.972,5.363-2.016,8.523c-0.032,2.311,1.567,4.117,3.671,4.821c15.85,5.305,29.262,15.709,44.565,22.237
				c6.567,2.801,13.104,4.459,20.151,5.403c5.663,0.758,13.938,1.049,18.41,5.074c1.178-2.845,2.356-5.69,3.535-8.536
				c-11.182,0.696-20.163-11.357-29.852-15.53c-4.974-2.143-9.794-2.141-15.104-1.788c-2.759,0.183-11.61,1.92-12.889-1.678
				c-2.143-6.032-11.807-3.434-9.643,2.658c4.68,13.173,19.931,8.135,30.498,8.883c6.381,0.451,13.187,7.316,18.16,10.798
				c5.562,3.894,11.868,7.091,18.829,6.657c4.063-0.253,6.996-5.42,3.535-8.536c-4.899-4.411-11.427-5.852-17.759-6.914
				c-7.788-1.307-15.088-2.171-22.544-5.032c-16.468-6.318-30.393-17.702-47.236-23.34c1.224,1.607,2.447,3.214,3.671,4.821
				c-0.128-1.215,0.088-2.374,0.651-3.477c-2.28,0.598-4.561,1.196-6.841,1.794c3.545,1.996,6.944,3.334,7.702,7.678
				C497.953,312.007,507.589,309.31,506.489,303.004L506.489,303.004z"/>
		</g>
	</g>
	<g display="inline">
		<g>
			<path fill="#EEFF8A" d="M506.513,238.662c0.357,1.144,0.192,2.192-0.496,3.147c3.046,1.284,6.093,2.568,9.139,3.853
				c1.193-2.977,2.431-5.918,3.829-8.806c1.373-2.835,0.328-6.49-2.988-7.345c-6.78-1.747-13.975-0.445-20.866-0.325
				c-2.579,0.044-6.438,0.26-8.513-1.608c-1.024-0.922-0.923-3.933-1.462-5.241c-0.358-0.871-2.132-3.499-2.155-3.671
				c-1.224,1.607-2.447,3.214-3.671,4.821c-0.215-0.559-0.431-1.119-0.646-1.678c-3.069,5.671,5.564,10.719,8.635,5.047
				c4.249-7.85-2.404-14.878-10.646-13.012c-1.948,0.441-3.948,2.725-3.671,4.821c0.346,2.615,0.95,4.376,2.518,6.492
				c1.38,1.862,1.142,4.994,2.226,7.148c1.787,3.551,5.924,5.44,9.589,6.243c8.555,1.874,17.608-1.557,26.005,0.606
				c-0.996-2.448-1.992-4.896-2.988-7.345c-1.774,3.664-3.323,7.417-4.837,11.194c-2.137,5.33,6.464,8.732,9.139,3.853
				c1.967-3.587,2.218-6.872,1.504-10.853C515.019,229.663,505.382,232.357,506.513,238.662L506.513,238.662z"/>
		</g>
	</g>
	<g display="inline">
		<g>
			<path fill="#EEFF8A" d="M500.857,182.348c-1.617-0.999-1.922-1.261-3.363-2.676c-1.321-1.298-2.486-2.752-3.625-4.208
				c-1.682-2.151-5.32-1.751-7.071,0c-2.101,2.102-1.677,4.926,0,7.071c2.58,3.299,5.422,6.232,9.012,8.448
				c2.321,1.433,5.489,0.514,6.84-1.794C504.053,186.795,503.172,183.777,500.857,182.348L500.857,182.348z"/>
		</g>
	</g>
</g>
<g id="Layer_1">
	<g>
		<g id="XMLID_1_">
			<g>
				<path fill="#00AEF0" d="M392.16,936.05c0.01-0.01,0.01-0.02,0-0.03c3.12-16.909,4.95-35.22,1.44-57.949
					c-4.94-27.771-5.17-114.99,36.4-229.99c0-1.44,30.12-2.72,77-3.55c14.03-0.25,29.57-0.45,46.25-0.61
					c23.62-0.22,49.55-0.34,76.75-0.34c41.57,114.99,43.52,206.72,38.59,234.49l-0.5-0.07c-3.85,26.95-0.21,47.67,3.98,67.37
					c6.069,28.58,13.26,55.03,0.319,95.27c-0.59,13.351,1.42,29.971,4.051,46.36h-0.011c-34.399,16-76.109,20.48-100.439,3.06
					l-0.71,0.04c-0.88-17.88-1.391-38.64-1.391-60.79c-6.189-7.409-10.159-15.229-12.689-23.77c-9.65-32.51,1.6-75.38-9.65-145.28
					c0-0.01,0-0.01,0-0.02C551.1,838.1,531.1,795.68,531.1,717h-0.02c0,79.59-20.46,122.07-20.46,144
					c-12.42,75.69,1.6,119.86-12.28,153.4c-2.44,5.93-5.76,11.529-10.26,16.909c1.62,25.971-2.76,47.32-6.28,71.4l-2.34-0.34
					c-34.4,16-69.99,15.11-94.33-2.311c0.01-17.68,0.07-36.079,4.45-57.42c-3.35-10.409-5.35-19.899-6.37-28.75
					c0-0.01,0-0.01,0-0.02c-0.01-0.021-0.01-0.05-0.01-0.07c-1.18-10.29-1.04-19.689-0.14-28.66
					C385.69,970.84,391.01,956.14,392.16,936.05z"/>
				<path fill="#00AEF0" d="M383.2,1013.8h-0.01c-2.42-10.29-1.85-19.39-0.13-28.66C382.16,994.11,382.02,1003.51,383.2,1013.8z"/>
				<path fill="#FF0000" d="M413.17,587.09c9.3,0,16.83,17.891,16.83,39.99V648v0.08c-41.57,115-41.34,202.22-36.4,229.99
					c0,23.399-0.53,42.12-1.44,57.949c0.01,0.011,0.01,0.021,0,0.03c-3.08,16.75-7.42,32.13-9.1,49.09
					c-1.72,9.271-2.29,18.37,0.13,28.66C236.12,989.41,155,950.07,93.61,885.57c63-108.07,194.77-179.99,246.12-400.72
					c3.69,14.41,9.15,23.8,19.37,27.24C388.99,512.09,394.25,589.75,413.17,587.09z"/>
				<path fill="#FAD6B4" d="M750.36,101.1l-1.471-2.61c-4.67-3.24-7.449-4.37-9.449-3.45l-0.94-1.52c-5.02-3.48-7.85-4.52-9.87-3.22
					L727,88.55c-9.85-10.13-10.65,0.58-22.41,30.01l-0.28,1.94c-2,1.99-4.92,2.78-7.119,1.81c-3.551-1.55-5.21-7.67,1.939-20.63
					c18.021-49.7,23.8-28.28,75.18-7.99c21.04,16.39,40.551,28.3,42.08,45.43c2.561,8.15,4.841,16.59,6.82,25.26
					c0,14.35-26.32,21.29-60.05,21.29l-0.521-0.06c1.141-10.07,0.54-19.75-3.22-29.34l0.09-0.43c-7.819-1.59-13.609-5.65-18.1-14.13
					c-1.22-2.3-2.351-4.93-3.4-7.93c0.17-0.43,0.34-0.86,0.5-1.28C745.62,114.16,746.53,103.48,750.36,101.1z"/>
				<path fill="#FAD6B4" d="M748.89,98.49l1.471,2.61c-3.83,2.38-4.74,13.06-11.851,31.4l-0.08-0.03
					c-4.279,2.81-11.779,0.68-11.779-3.03l-0.851-0.11c0.11-0.07,0.23-0.13,0.34-0.21l0.33-0.62c8.03-20.09,8.681-31.5,12.971-33.46
					C741.44,94.12,744.22,95.25,748.89,98.49z"/>
				<path fill="#FAD6B4" d="M738.01,133.78c1.05,3,2.181,5.63,3.4,7.93c-27.2,0-30.86,0.48-48.51-7.42
					c-4.42-5.59-3.681-8.94,3.96-11.3l0.33-0.68c2.199,0.97,5.119,0.18,7.119-1.81c0,3.71,7.49,5.84,11.78,3.03
					c0,3.61,5.47,8.14,9.71,5.8l0.851,0.11c0,3.71,7.5,5.84,11.779,3.03l0.08,0.03C738.35,132.92,738.18,133.35,738.01,133.78z"/>
				<path fill="#FAD6B4" d="M738.5,93.52l0.94,1.52c-4.29,1.96-4.94,13.37-12.971,33.46l-0.33,0.62
					c-0.109,0.08-0.229,0.14-0.34,0.21c-4.24,2.34-9.71-2.19-9.71-5.8c7.75-19.4,8.62-30.7,12.54-33.23
					C730.65,89,733.48,90.04,738.5,93.52z"/>
				<path fill="#FAD6B4" d="M727,88.55l1.63,1.75c-3.92,2.53-4.79,13.83-12.54,33.23c-4.29,2.81-11.78,0.68-11.78-3.03l0.28-1.94
					C716.35,89.13,717.15,78.42,727,88.55z"/>
				<path fill="#FF0000" d="M716.09,494.34c0,249.19-19.26,450.82-43.05,450.82c-2.71-17.69-4.45-39.03-4.45-67.09
					c4.93-27.771,2.98-119.5-38.59-234.49v-16.5c0-22.1,7.53-39.99,16.83-39.99c18.92,2.66,24.18-75,54.07-75
					C707.85,509.75,712.6,503.42,716.09,494.34z"/>
				<path fill="#FF0000" d="M685.38,1151.06c5.15,29.94-31.16,63.271-12.09,134.99c0,45.49-12.35,94.271-38.56,94.49
					c-24.91-0.21-38.57-48.99-38.57-94.49c23.72-61.05-13.43-105.66-11.8-134.99c-3.88,0-7.271-24.51-9.08-60.96l0.71-0.04
					c24.33,17.421,66.04,12.94,100.439-3.06h0.011C680.86,1114.64,687.02,1141.61,685.38,1151.06z"/>
				<path fill="#FF0000" d="M673.04,945.16l-0.97,0.21c-4.19-19.7-7.83-40.42-3.98-67.37l0.5,0.07
					C668.59,906.13,670.33,927.47,673.04,945.16z"/>
				<path fill="#FFFF00" d="M534.58,534.65L623.2,434.61l-33.83-32.36l-120.32,4.98l-31.04,35.04L534.58,534.65z M645.44,430.39
					L535.81,549.48L416.73,439.85l38.39-41.71l148.61-6.15L645.44,430.39z"/>
				<path d="M630,627.08v16.5c-27.2,0-53.13,0.12-76.75,0.34c6.52-3.439,9.35-16.97-1.73-20.4l-0.01-0.579
					c24.09-0.23,50.62-0.36,78.49-0.36V623V627.08z"/>
				<polygon fill="#00AEF0" points="623.2,434.61 534.58,534.65 438.01,442.27 469.05,407.23 589.37,402.25 				"/>
				<path fill="#FAD6B4" d="M475.4,224.98c-17.93,7.47-23.9-30.7-8.4-37.95l0.09-0.05c0.01,0.02,0.02,0.03,0.03,0.05
					c12.34-3.7,14.21-5.7,18.06,7.25l5.37,13.93l5.37,13.94l2.05-3.75l2.05-3.75l-4.1-17l-4.11-17c12.22-2.77,27.74-3.08,42.82-4.17
					s29.73-2.96,40.18-8.83l0.19,0.49l1.51,12.67l0.8,6.66l-1.819,8.51l-2.75,12.81l2.779,4.74l8.341,14.22
					c0,1.95-2.19,3.67-5.551,4.71l10.5,13.54c0,0.65-2.25,1.19-5.97,1.63c-15.02,1.73-53.92,1.58-64.84-1.63h-0.19l-0.43,12
					c0,14.7,27.72,12.38,63.29,12.03c2.35-0.02,4.73-0.03,7.14-0.03l-3.5,13.5l-3.5,13.5h-8.069H540.31h-40.5l-14.05-41.45
					l-7.52-22.19L475.4,224.98z M536.5,206.11c0-4.4-2.03-7.98-4.53-7.98c-2.489,0-4.52,3.58-4.52,7.98c0,4.41,2.03,7.98,4.52,7.98
					C534.47,214.09,536.5,210.52,536.5,206.11z"/>
				<path fill="#FAD6B4" d="M583.86,335H584c-1.16,8.06-126,8.84-126,0h0.1c10.9,0,19.73-45.4,19.73-101.5l0.41-0.14l7.52,22.19
					L499.81,297h40.5h32.431C572.74,318,577.71,335,583.86,335z"/>
				<path fill="#FFFFFF" d="M582.84,247.63L580.67,270v0.03c-35.57,0.35-63.29,2.67-63.29-12.03l0.43-12H518
					C528.92,249.21,567.82,249.36,582.84,247.63z"/>
				<path d="M467.09,186.98c-20.84-37.05,125.9-88.63,112.91-33.51v0.28l-5.06,13.9l0.06,0.49l-0.19-0.49
					c-10.449,5.87-25.1,7.74-40.18,8.83s-30.6,1.4-42.82,4.17l4.11,17l4.1,17l-2.05,3.75l-2.05,3.75l-5.37-13.94l-5.37-13.93
					c-3.85-12.95-5.72-10.95-18.06-7.25C467.11,187.01,467.1,187,467.09,186.98z"/>
				<polygon points="577.31,174.15 579.81,180.65 576.51,180.81 575,168.14 				"/>
				<polygon points="579.81,180.65 577.31,187.47 576.51,180.81 				"/>
				<path fill="#FF0000" d="M551.55,860.26c11.25,69.9,0,112.771,9.65,145.28l-2.21,0.49c-38.141,8.54-57.101,8.37-60.65,8.37
					c13.88-33.54-0.14-77.71,12.28-153.4c0-21.93,20.46-64.41,20.46-144h0.02c0,78.68,20,121.1,20.45,143.24
					C551.55,860.25,551.55,860.25,551.55,860.26z"/>
				<path fill="#00FFFF" d="M551.52,623.52c11.08,3.431,8.25,16.961,1.73,20.4c-16.68,0.16-32.22,0.36-46.25,0.61v-0.261
					c-7.04-2.77-10.5-17.189,0.99-20.75c13.279-0.239,27.88-0.43,43.52-0.579L551.52,623.52z"/>
				<path d="M507,644.27v0.261c-46.88,0.83-77,2.109-77,3.55V648v-20.92c0-1.45,30.54-2.74,77.99-3.561
					C496.5,627.08,499.96,641.5,507,644.27z"/>
				<path fill="#FF0000" d="M477.85,1148.08c0,0.02,0,0.05,0,0.07c1.26,29.369-30.72,77.18-7.13,137.899
					c0,45.5-13.66,94.28-38.57,94.49c-26.21-0.22-38.55-49-38.55-94.49c19.06-71.72-17.25-105.05-12.1-134.99
					c3.68-17.67,3.62-34,3.63-51c24.34,17.421,59.93,18.311,94.33,2.311l2.34,0.34C479.77,1116.48,478.03,1131.14,477.85,1148.08z"
					/>
				<path fill="#FAD6B4" d="M303.93,136.79c-0.18-0.43-0.35-0.86-0.51-1.29l0.08-0.03c4.29,2.81,11.78,0.68,11.78-3.03l0.51-0.32
					c4.28,2.8,10.06-1.88,10.06-5.59c4.28,2.81,11.78,0.68,11.78-3.03c2.24,2.23,5.62,2.95,7.86,1.39l-0.36,1.12
					c7.58,2.36,8.31,5.71,3.9,11.28c-17.64,7.9-21.31,7.42-48.5,7.42C301.75,142.41,302.88,139.78,303.93,136.79z"/>
				<path fill="#FAD6B4" d="M282.42,158.84l0.09,0.43c-3.39,8.66-4.2,17.38-3.49,26.4h-0.01c-33.12,0-59.92-8.89-59.92-19.88
					c1.89-8.11,4.05-16.02,6.45-23.67c1.54-17.13,21.04-29.04,42.08-45.43c51.39-20.29,57.16-41.71,75.19,7.99
					c6.62,12.01,5.68,18.14,2.68,20.21c-2.24,1.56-5.62,0.84-7.86-1.39c0,3.71-7.5,5.84-11.78,3.03
					c-11.77-29.43-7.69-40.23-22.42-30.01l-2.4,1.21c5.7,0,5.57,11.6,14.43,33.77l0.33,0.62l-0.51,0.32c0,3.71-7.49,5.84-11.78,3.03
					l-0.08,0.03c0.16,0.43,0.33,0.86,0.51,1.29c-1.05,2.99-2.18,5.62-3.4,7.92C296.03,153.19,290.24,157.25,282.42,158.84z"/>
				<path fill="#FAD6B4" d="M325.85,126.53c0,3.71-5.78,8.39-10.06,5.59l-0.33-0.62c-8.86-22.17-8.73-33.77-14.43-33.77l2.4-1.21
					C318.16,86.3,314.08,97.1,325.85,126.53z"/>
			</g>
			<g>
				
					<path fill="none" stroke="#000000" stroke-width="4" stroke-linecap="round" stroke-linejoin="round" stroke-miterlimit="10" d="
					M383.19,1013.8c-2.42-10.29-1.85-19.39-0.13-28.66c2.63-14.3,7.95-29,9.1-49.09"/>
				
					<polyline fill="none" stroke="#000000" stroke-width="4" stroke-linecap="round" stroke-linejoin="round" stroke-miterlimit="10" points="
					455.12,398.14 603.73,391.99 645.44,430.39 535.81,549.48 535.38,549.95 				"/>
				
					<polyline fill="none" stroke="#000000" stroke-width="4" stroke-linecap="round" stroke-linejoin="round" stroke-miterlimit="10" points="
					536.29,549.92 535.81,549.48 416.73,439.85 455.12,398.14 454.86,398.15 				"/>
				
					<polyline fill="none" stroke="#000000" stroke-width="4" stroke-linecap="round" stroke-linejoin="round" stroke-miterlimit="10" points="
					623.2,434.61 534.58,534.65 534.23,535.05 				"/>
				
					<polyline fill="none" stroke="#000000" stroke-width="4" stroke-linecap="round" stroke-linejoin="round" stroke-miterlimit="10" points="
					468.83,407.24 469.05,407.23 589.37,402.25 623.2,434.61 				"/>
				
					<line fill="none" stroke="#000000" stroke-width="4" stroke-linecap="round" stroke-linejoin="round" stroke-miterlimit="10" x1="438.01" y1="442.27" x2="469.05" y2="407.23"/>
				
					<polyline fill="none" stroke="#000000" stroke-width="4" stroke-linecap="round" stroke-linejoin="round" stroke-miterlimit="10" points="
					534.97,535.02 534.58,534.65 438.01,442.27 				"/>
				
					<path fill="none" stroke="#000000" stroke-width="4" stroke-linecap="round" stroke-linejoin="round" stroke-miterlimit="10" d="
					M507.99,623.52c-11.49,3.561-8.03,17.98-0.99,20.75"/>
				
					<path fill="none" stroke="#000000" stroke-width="4" stroke-linecap="round" stroke-linejoin="round" stroke-miterlimit="10" d="
					M551.52,623.52c11.08,3.431,8.25,16.961,1.73,20.4c-0.24,0.14-0.49,0.25-0.74,0.35"/>
				
					<polyline fill="none" stroke="#000000" stroke-width="4" stroke-linecap="round" stroke-linejoin="round" stroke-miterlimit="10" points="
					587.81,270 584.31,283.5 580.81,297 572.74,297 540.31,297 499.81,297 485.76,255.55 478.24,233.36 475.4,224.98 471.71,214.09 
									"/>
				
					<polyline fill="none" stroke="#000000" stroke-width="4" stroke-linecap="round" stroke-linejoin="round" stroke-miterlimit="10" points="
					578.3,232.45 578.31,232.46 588.81,246 				"/>
				
					<path fill="none" stroke="#000000" stroke-width="4" stroke-linecap="round" stroke-linejoin="round" stroke-miterlimit="10" d="
					M510.66,250.19c-0.51-5.99,4.08-11.27,10.28-11.8"/>
				
					<path fill="none" stroke="#000000" stroke-width="4" stroke-linecap="round" stroke-linejoin="round" stroke-miterlimit="10" d="
					M475.4,224.98c-17.93,7.47-23.9-30.7-8.4-37.95"/>
				
					<path fill="none" stroke="#000000" stroke-width="4" stroke-linecap="round" stroke-linejoin="round" stroke-miterlimit="10" d="
					M465.07,208.79c-0.45-9.7,3.68-17.01,12.76-10.66"/>
				
					<line fill="none" stroke="#000000" stroke-width="4" stroke-linecap="square" stroke-miterlimit="10" x1="540.67" y1="185.67" x2="514.23" y2="191.78"/>
				
					<line fill="none" stroke="#000000" stroke-width="4" stroke-linecap="square" stroke-miterlimit="10" x1="576.51" y1="180.81" x2="565.67" y2="181.33"/>
				
					<line fill="none" stroke="#000000" stroke-width="4" stroke-linecap="round" stroke-linejoin="round" stroke-miterlimit="10" x1="517.81" y1="246" x2="517.38" y2="258"/>
				
					<polyline fill="none" stroke="#000000" stroke-width="4" stroke-linecap="round" stroke-linejoin="round" stroke-miterlimit="10" points="
					582.84,247.62 582.84,247.63 580.67,270 				"/>
				
					<path fill="none" stroke="#000000" stroke-width="4" stroke-linecap="round" stroke-linejoin="round" stroke-miterlimit="10" d="
					M517.38,258c0,14.7,27.72,12.38,63.29,12.03c2.35-0.02,4.73-0.03,7.14-0.03"/>
				
					<path fill="none" stroke="#000000" stroke-width="4" stroke-linecap="round" stroke-linejoin="round" stroke-miterlimit="10" d="
					M518,246c10.92,3.21,49.82,3.36,64.84,1.63c3.72-0.44,5.97-0.98,5.97-1.63"/>
				
					<polyline fill="none" stroke="#000000" stroke-width="4" stroke-linecap="round" stroke-linejoin="round" stroke-miterlimit="10" points="
					572.74,208.79 575.49,195.98 577.31,187.47 				"/>
				
					<path fill="none" stroke="#000000" stroke-width="4" stroke-linecap="round" stroke-linejoin="round" stroke-miterlimit="10" d="
					M577.31,187.47l2.5-6.82l-2.5-6.5l-2.31-6.01l-0.19-0.49c-10.449,5.87-25.1,7.74-40.18,8.83s-30.6,1.4-42.82,4.17l4.11,17
					l4.1,17l-2.05,3.75l-2.05,3.75l-5.37-13.94l-5.37-13.93c-3.85-12.95-5.72-10.95-18.06-7.25c-0.01-0.02-0.02-0.03-0.03-0.05
					c-20.84-37.05,125.9-88.63,112.91-33.51v0.28l-5.06,13.9"/>
				
					<polyline fill="none" stroke="#000000" stroke-width="4" stroke-linecap="round" stroke-linejoin="round" stroke-miterlimit="10" points="
					583.86,227.75 575.52,213.53 572.74,208.79 				"/>
				
					<path fill="none" stroke="#000000" stroke-width="4" stroke-linecap="round" stroke-linejoin="round" stroke-miterlimit="10" d="
					M583.86,227.75c0,1.95-2.19,3.67-5.551,4.71c-2.13,0.66-4.72,1.04-7.52,1.04"/>
				
					<path fill="none" stroke="#000000" stroke-width="4" stroke-linecap="round" stroke-linejoin="round" stroke-miterlimit="10" d="
					M477.83,233.5c0,56.1-8.83,101.5-19.73,101.5"/>
				
					<path fill="none" stroke="#000000" stroke-width="4" stroke-linecap="round" stroke-linejoin="round" stroke-miterlimit="10" d="
					M572.74,297c0,21,4.97,38,11.12,38"/>
				
					<path fill="none" stroke="#000000" stroke-width="4" stroke-linecap="round" stroke-linejoin="round" stroke-miterlimit="10" d="
					M531.97,214.09c-2.489,0-4.52-3.57-4.52-7.98c0-4.4,2.03-7.98,4.52-7.98c2.5,0,4.53,3.58,4.53,7.98
					C536.5,210.52,534.47,214.09,531.97,214.09z"/>
				
					<path fill="none" stroke="#000000" stroke-width="4" stroke-linecap="round" stroke-linejoin="round" stroke-miterlimit="10" d="
					M575.49,195.98c6.27,4.6,6.93,12.27,0.51,17.27"/>
				
					<path fill="none" stroke="#000000" stroke-width="4" stroke-linecap="round" stroke-linejoin="round" stroke-miterlimit="10" d="
					M531.08,717c0,79.59-20.46,122.07-20.46,144"/>
				
					<path fill="none" stroke="#000000" stroke-width="4" stroke-linecap="round" stroke-linejoin="round" stroke-miterlimit="10" d="
					M551.55,860.26c0.01,0.25,0.01,0.5,0.01,0.74"/>
				
					<path fill="none" stroke="#000000" stroke-width="4" stroke-linecap="round" stroke-linejoin="round" stroke-miterlimit="10" d="
					M531.1,717c0,78.68,20,121.1,20.45,143.24"/>
				
					<path fill="none" stroke="#000000" stroke-width="4" stroke-linecap="round" stroke-linejoin="round" stroke-miterlimit="10" d="
					M498.34,1014.4c3.55,0,22.51,0.17,60.65-8.37"/>
				
					<path fill="none" stroke="#000000" stroke-width="4" stroke-linecap="round" stroke-linejoin="round" stroke-miterlimit="10" d="
					M383.21,1013.89c1.02,8.851,3.02,18.341,6.37,28.75c-4.38,21.341-4.44,39.74-4.45,57.42c-0.01,17,0.05,33.33-3.63,51"/>
				
					<path fill="none" stroke="#000000" stroke-width="4" stroke-linecap="round" stroke-linejoin="round" stroke-miterlimit="10" d="
					M392.16,936.05c-3.08,16.75-7.42,32.13-9.1,49.09c-0.9,8.971-1.04,18.37,0.14,28.66"/>
				
					<path fill="none" stroke="#000000" stroke-width="4" stroke-linecap="round" stroke-linejoin="round" stroke-miterlimit="10" d="
					M393.6,878.07c3.51,22.729,1.68,41.04-1.44,57.949"/>
				<path fill="none" stroke="#000000" stroke-width="4" stroke-miterlimit="10" d="M477.85,1148.15
					c-0.01,0.96-0.02,1.93-0.02,2.909"/>
				<path fill="none" stroke="#000000" stroke-width="4" stroke-miterlimit="10" d="M510.62,861
					c-12.42,75.69,1.6,119.86-12.28,153.4c-2.44,5.93-5.76,11.529-10.26,16.909c1.62,25.971-2.76,47.32-6.28,71.4
					c-2.03,13.771-3.77,28.43-3.95,45.37"/>
				
					<path fill="none" stroke="#000000" stroke-width="4" stroke-linecap="round" stroke-linejoin="round" stroke-miterlimit="10" d="
					M381.5,1151.06c-5.15,29.94,31.16,63.271,12.1,134.99"/>
				
					<path fill="none" stroke="#000000" stroke-width="4" stroke-linecap="round" stroke-linejoin="round" stroke-miterlimit="10" d="
					M393.6,1286.05c0,45.49,12.34,94.271,38.55,94.49c0.06,0.01,0.12,0.01,0.18,0.01"/>
				
					<path fill="none" stroke="#000000" stroke-width="4" stroke-linecap="round" stroke-linejoin="round" stroke-miterlimit="10" d="
					M470.72,1286.05c0,45.5-13.66,94.28-38.57,94.49c-0.06,0.01-0.11,0.01-0.17,0.01"/>
				
					<path fill="none" stroke="#000000" stroke-width="4" stroke-linecap="round" stroke-linejoin="round" stroke-miterlimit="10" d="
					M477.85,1148.15c1.26,29.369-30.72,77.18-7.13,137.899"/>
				<path fill="none" stroke="#000000" stroke-width="4" stroke-miterlimit="10" d="M477.85,1148.08c0,0.02,0,0.05,0,0.07"/>
				
					<path fill="none" stroke="#000000" stroke-width="4" stroke-linecap="round" stroke-linejoin="round" stroke-miterlimit="10" d="
					M477.83,1147.67c0.01,0.14,0.01,0.271,0.02,0.41"/>
				
					<path fill="none" stroke="#000000" stroke-width="4" stroke-linecap="round" stroke-linejoin="round" stroke-miterlimit="10" d="
					M385.13,1100.06c24.34,17.421,59.93,18.311,94.33,2.311"/>
				<path fill="none" stroke="#000000" stroke-width="4" stroke-miterlimit="10" d="M551.55,860.26
					c11.25,69.9,0,112.771,9.65,145.28c2.53,8.54,6.5,16.36,12.689,23.77"/>
				
					<path fill="none" stroke="#000000" stroke-width="4" stroke-linecap="round" stroke-linejoin="round" stroke-miterlimit="10" d="
					M551.55,860.24c0,0.01,0,0.01,0,0.02"/>
				<path fill="none" stroke="#000000" stroke-width="4" stroke-miterlimit="10" d="M551.35,859c0.07,0.41,0.141,0.83,0.2,1.24"/>
				
					<path fill="none" stroke="#000000" stroke-width="4" stroke-linecap="round" stroke-linejoin="round" stroke-miterlimit="10" d="
					M430,648.08c-41.57,115-41.34,202.22-36.4,229.99"/>
				
					<path fill="none" stroke="#000000" stroke-width="4" stroke-linecap="round" stroke-linejoin="round" stroke-miterlimit="10" d="
					M339.73,484.85C288.38,705.58,156.61,777.5,93.61,885.57"/>
				
					<path fill="none" stroke="#000000" stroke-width="4" stroke-linecap="round" stroke-linejoin="round" stroke-miterlimit="10" d="
					M93.61,885.57C155,950.07,236.12,989.41,383.19,1013.8"/>
				
					<path fill="none" stroke="#000000" stroke-width="4" stroke-linecap="round" stroke-linejoin="round" stroke-miterlimit="10" d="
					M769.47,156.71c-3.649,0-6.96-0.25-9.96-0.87c-7.819-1.59-13.609-5.65-18.1-14.13c-1.22-2.3-2.351-4.93-3.4-7.93
					c-0.029-0.08-0.06-0.17-0.09-0.25"/>
				
					<path fill="none" stroke="#000000" stroke-width="4" stroke-linecap="round" stroke-linejoin="round" stroke-miterlimit="10" d="
					M816.39,139.12c-1.529-17.13-21.04-29.04-42.08-45.43"/>
				
					<path fill="none" stroke="#000000" stroke-width="4" stroke-linecap="round" stroke-linejoin="round" stroke-miterlimit="10" d="
					M774.31,93.69c-51.38-20.29-57.159-41.71-75.18,7.99"/>
				
					<path fill="none" stroke="#000000" stroke-width="4" stroke-linecap="round" stroke-linejoin="round" stroke-miterlimit="10" d="
					M727,88.55c-9.85-10.13-10.65,0.58-22.41,30.01"/>
				
					<path fill="none" stroke="#000000" stroke-width="4" stroke-linecap="round" stroke-linejoin="round" stroke-miterlimit="10" d="
					M699.13,101.68c-7.149,12.96-5.49,19.08-1.939,20.63c2.199,0.97,5.119,0.18,7.119-1.81"/>
				
					<path fill="none" stroke="#000000" stroke-width="4" stroke-linecap="round" stroke-linejoin="round" stroke-miterlimit="10" d="
					M704.31,120.5c0,3.71,7.49,5.84,11.78,3.03"/>
				
					<path fill="none" stroke="#000000" stroke-width="4" stroke-linecap="round" stroke-linejoin="round" stroke-miterlimit="10" d="
					M696.86,122.99c-7.641,2.36-8.38,5.71-3.96,11.3"/>
				
					<path fill="none" stroke="#000000" stroke-width="4" stroke-linecap="round" stroke-linejoin="round" stroke-miterlimit="10" d="
					M692.9,134.29c17.649,7.9,21.31,7.42,48.51,7.42"/>
				
					<path fill="none" stroke="#000000" stroke-width="4" stroke-linecap="round" stroke-linejoin="round" stroke-miterlimit="10" d="
					M738.5,93.52c-5.02-3.48-7.85-4.52-9.87-3.22c-3.92,2.53-4.79,13.83-12.54,33.23"/>
				
					<path fill="none" stroke="#000000" stroke-width="4" stroke-linecap="round" stroke-linejoin="round" stroke-miterlimit="10" d="
					M748.89,98.49c-4.67-3.24-7.449-4.37-9.449-3.45c-4.29,1.96-4.94,13.37-12.971,33.46"/>
				
					<path fill="none" stroke="#000000" stroke-width="4" stroke-linecap="round" stroke-linejoin="round" stroke-miterlimit="10" d="
					M760.2,104.35c-4.98-3.45-7.811-4.51-9.84-3.25c-3.83,2.38-4.74,13.06-11.851,31.4c-0.16,0.42-0.33,0.85-0.5,1.28
					c-0.08,0.19-0.149,0.39-0.229,0.58"/>
				
					<path fill="none" stroke="#000000" stroke-width="4" stroke-linecap="round" stroke-linejoin="round" stroke-miterlimit="10" d="
					M716.09,123.53c0,3.61,5.47,8.14,9.71,5.8c0.11-0.07,0.23-0.13,0.34-0.21"/>
				
					<path fill="none" stroke="#000000" stroke-width="4" stroke-linecap="round" stroke-linejoin="round" stroke-miterlimit="10" d="
					M726.65,129.44c0,3.71,7.5,5.84,11.779,3.03"/>
				
					<path fill="none" stroke="#000000" stroke-width="4" stroke-linecap="round" stroke-linejoin="round" stroke-miterlimit="10" d="
					M272.46,159.71c3.65,0,6.95-0.25,9.96-0.87c7.82-1.59,13.61-5.65,18.11-14.13c1.22-2.3,2.35-4.93,3.4-7.92
					c0.03-0.09,0.06-0.17,0.09-0.26"/>
				
					<path fill="none" stroke="#000000" stroke-width="4" stroke-linecap="round" stroke-linejoin="round" stroke-miterlimit="10" d="
					M225.54,142.12c1.54-17.13,21.04-29.04,42.08-45.43"/>
				
					<path fill="none" stroke="#000000" stroke-width="4" stroke-linecap="round" stroke-linejoin="round" stroke-miterlimit="10" d="
					M267.62,96.69c51.39-20.29,57.16-41.71,75.19,7.99"/>
				
					<path fill="none" stroke="#000000" stroke-width="4" stroke-linecap="round" stroke-linejoin="round" stroke-miterlimit="10" d="
					M314.93,91.55c9.85-10.13,10.65,0.58,22.42,30.01"/>
				
					<path fill="none" stroke="#000000" stroke-width="4" stroke-linecap="round" stroke-linejoin="round" stroke-miterlimit="10" d="
					M342.81,104.68c6.62,12.01,5.68,18.14,2.68,20.21c-2.24,1.56-5.62,0.84-7.86-1.39"/>
				
					<path fill="none" stroke="#000000" stroke-width="4" stroke-linecap="round" stroke-linejoin="round" stroke-miterlimit="10" d="
					M337.63,123.5c0,3.71-7.5,5.84-11.78,3.03"/>
				
					<path fill="none" stroke="#000000" stroke-width="4" stroke-linecap="round" stroke-linejoin="round" stroke-miterlimit="10" d="
					M345.07,125.99c0.02,0.01,0.04,0.01,0.06,0.02c7.58,2.36,8.31,5.71,3.9,11.28"/>
				
					<path fill="none" stroke="#000000" stroke-width="4" stroke-linecap="round" stroke-linejoin="round" stroke-miterlimit="10" d="
					M349.03,137.29c-17.64,7.9-21.31,7.42-48.5,7.42"/>
				
					<path fill="none" stroke="#000000" stroke-width="4" stroke-linecap="round" stroke-linejoin="round" stroke-miterlimit="10" d="
					M303.43,96.52c14.73-10.22,10.65,0.58,22.42,30.01"/>
				
					<path fill="none" stroke="#000000" stroke-width="4" stroke-linecap="round" stroke-linejoin="round" stroke-miterlimit="10" d="
					M293.05,101.49c3.63-2.52,6.12-3.76,7.98-3.76c5.7,0,5.57,11.6,14.43,33.77"/>
				
					<path fill="none" stroke="#000000" stroke-width="4" stroke-linecap="round" stroke-linejoin="round" stroke-miterlimit="10" d="
					M281.74,107.35c14.41-10,10.82,0.13,21.68,28.15c0.16,0.43,0.33,0.86,0.51,1.29c0.07,0.19,0.14,0.38,0.22,0.57"/>
				
					<path fill="none" stroke="#000000" stroke-width="4" stroke-linecap="round" stroke-linejoin="round" stroke-miterlimit="10" d="
					M325.85,126.53c0,3.71-5.78,8.39-10.06,5.59"/>
				
					<path fill="none" stroke="#000000" stroke-width="4" stroke-linecap="round" stroke-linejoin="round" stroke-miterlimit="10" d="
					M315.28,132.44c0,3.71-7.49,5.84-11.78,3.03"/>
				
					<path fill="none" stroke="#000000" stroke-width="4" stroke-linecap="round" stroke-linejoin="round" stroke-miterlimit="10" d="
					M630,643.58c41.57,114.99,43.52,206.72,38.59,234.49"/>
				
					<path fill="none" stroke="#000000" stroke-width="4" stroke-linecap="round" stroke-linejoin="round" stroke-miterlimit="10" d="
					M458,335c-14-10-59.91,0-74,0"/>
				
					<path fill="none" stroke="#000000" stroke-width="4" stroke-linecap="round" stroke-linejoin="round" stroke-miterlimit="10" d="
					M584,335c14-10,59.91,0,74,0"/>
				
					<path fill="none" stroke="#000000" stroke-width="4" stroke-linecap="round" stroke-linejoin="round" stroke-miterlimit="10" d="
					M430,627.08V648v0.08c0-1.44,30.12-2.72,77-3.55c14.03-0.25,29.57-0.45,46.25-0.61c23.62-0.22,49.55-0.34,76.75-0.34"/>
				
					<path fill="none" stroke="#000000" stroke-width="4" stroke-linecap="round" stroke-linejoin="round" stroke-miterlimit="10" d="
					M630,644v-0.42v-16.5V623v-0.42c-27.87,0-54.4,0.13-78.49,0.36c-15.64,0.149-30.24,0.34-43.52,0.579
					c-47.45,0.82-77.99,2.11-77.99,3.561"/>
				
					<path fill="none" stroke="#000000" stroke-width="4" stroke-linecap="round" stroke-linejoin="round" stroke-miterlimit="10" d="
					M430,627.08c0-22.1-7.53-39.99-16.83-39.99"/>
				
					<path fill="none" stroke="#000000" stroke-width="4" stroke-linecap="round" stroke-linejoin="round" stroke-miterlimit="10" d="
					M413.17,587.09c-18.92,2.66-24.18-75-54.07-75"/>
				
					<path fill="none" stroke="#000000" stroke-width="4" stroke-linecap="round" stroke-linejoin="round" stroke-miterlimit="10" d="
					M359.1,512.09c-10.22-3.439-15.68-12.83-19.37-27.24c0-0.01,0-0.01,0-0.02c-2.82-11.06-4.61-25.07-6.7-41.62
					c-0.01-0.07-0.02-0.14-0.03-0.21"/>
				
					<path fill="none" stroke="#000000" stroke-width="4" stroke-linecap="round" stroke-linejoin="round" stroke-miterlimit="10" d="
					M630,627.08c0-22.1,7.53-39.99,16.83-39.99"/>
				
					<path fill="none" stroke="#000000" stroke-width="4" stroke-linecap="round" stroke-linejoin="round" stroke-miterlimit="10" d="
					M646.83,587.09c18.92,2.66,24.18-75,54.07-75"/>
				
					<path fill="none" stroke="#000000" stroke-width="4" stroke-linecap="round" stroke-linejoin="round" stroke-miterlimit="10" d="
					M700.9,512.09c6.949-2.34,11.699-8.67,15.189-17.75c5.59-14.55,7.94-36.17,10.91-59.73"/>
				
					<path fill="none" stroke="#000000" stroke-width="4" stroke-linecap="round" stroke-linejoin="round" stroke-miterlimit="10" d="
					M458,335c0,8.84,124.84,8.06,126,0"/>
				
					<path fill="none" stroke="#000000" stroke-width="4" stroke-linecap="round" stroke-linejoin="round" stroke-miterlimit="10" d="
					M384,335c-12.93-23.09-53.49-44.5-96.49-25.5"/>
				
					<path fill="none" stroke="#000000" stroke-width="4" stroke-linecap="round" stroke-linejoin="round" stroke-miterlimit="10" d="
					M250,380c18.73,29.4,43.54,53.4,83.03,63.21c12.44,3.1,26.34,4.79,41.97,4.79"/>
				
					<path fill="none" stroke="#000000" stroke-width="4" stroke-linecap="round" stroke-linejoin="round" stroke-miterlimit="10" d="
					M225.54,142.12c-2.4,7.65-4.56,15.56-6.45,23.67c-12.91,55.34-13.33,119.92,6.28,175.55"/>
				
					<path fill="none" stroke="#000000" stroke-width="4" stroke-linecap="round" stroke-linejoin="round" stroke-miterlimit="10" d="
					M296.49,305.77c7.43-51.07-14.94-87.52-17.47-120.1c-0.71-9.02,0.1-17.74,3.49-26.4"/>
				
					<path fill="none" stroke="#000000" stroke-width="4" stroke-linecap="round" stroke-linejoin="round" stroke-miterlimit="10" d="
					M250,380c-20-12-20.5-28-24.63-38.66"/>
				
					<path fill="none" stroke="#000000" stroke-width="4" stroke-linecap="round" stroke-linejoin="round" stroke-miterlimit="10" d="
					M657.93,332c12.94-23.09,53.5-44.5,96.5-25.5"/>
				
					<path fill="none" stroke="#000000" stroke-width="4" stroke-linecap="round" stroke-linejoin="round" stroke-miterlimit="10" d="
					M791.93,377c-24.62,38.66-59.77,68-125,68"/>
				
					<path fill="none" stroke="#000000" stroke-width="4" stroke-linecap="round" stroke-linejoin="round" stroke-miterlimit="10" d="
					M816.39,139.12c2.561,8.15,4.841,16.59,6.82,25.26c12.56,54.98,12.771,118.86-6.65,173.96"/>
				
					<path fill="none" stroke="#000000" stroke-width="4" stroke-linecap="round" stroke-linejoin="round" stroke-miterlimit="10" d="
					M745.45,302.77c-7.22-49.54,13.62-85.32,17.189-117.16c1.141-10.07,0.54-19.75-3.22-29.34"/>
				
					<path fill="none" stroke="#000000" stroke-width="4" stroke-linecap="round" stroke-linejoin="round" stroke-miterlimit="10" d="
					M791.93,377c20-12,20.5-28,24.63-38.66"/>
				
					<path fill="none" stroke="#000000" stroke-width="4" stroke-linecap="round" stroke-linejoin="round" stroke-miterlimit="10" d="
					M219.09,165.79c0,10.99,26.8,19.88,59.92,19.88"/>
				
					<path fill="none" stroke="#000000" stroke-width="4" stroke-linecap="round" stroke-linejoin="round" stroke-miterlimit="10" d="
					M823.21,164.38c0,14.35-26.32,21.29-60.05,21.29"/>
				
					<path fill="none" stroke="#000000" stroke-width="4" stroke-linecap="round" stroke-linejoin="round" stroke-miterlimit="10" d="
					M668.37,876.07c-0.101,0.649-0.2,1.29-0.28,1.93c-3.85,26.95-0.21,47.67,3.98,67.37c6.069,28.58,13.26,55.03,0.319,95.27"/>
				
					<path fill="none" stroke="#000000" stroke-width="4" stroke-linecap="round" stroke-linejoin="round" stroke-miterlimit="10" d="
					M716.09,494.34c0,249.19-19.26,450.82-43.05,450.82"/>
				
					<path fill="none" stroke="#000000" stroke-width="4" stroke-linecap="round" stroke-linejoin="round" stroke-miterlimit="10" d="
					M685.38,1151.06c5.15,29.94-31.16,63.271-12.09,134.99"/>
				
					<path fill="none" stroke="#000000" stroke-width="4" stroke-linecap="round" stroke-linejoin="round" stroke-miterlimit="10" d="
					M673.29,1286.05c0,45.49-12.35,94.271-38.56,94.49c-0.061,0.01-0.12,0.01-0.181,0.01"/>
				
					<path fill="none" stroke="#000000" stroke-width="4" stroke-linecap="round" stroke-linejoin="round" stroke-miterlimit="10" d="
					M596.16,1286.05c0,45.5,13.66,94.28,38.57,94.49c0.06,0.01,0.109,0.01,0.17,0.01"/>
				
					<path fill="none" stroke="#000000" stroke-width="4" stroke-linecap="round" stroke-linejoin="round" stroke-miterlimit="10" d="
					M584.36,1151.06c-1.63,29.33,35.52,73.94,11.8,134.99"/>
				
					<path fill="none" stroke="#000000" stroke-width="4" stroke-linecap="round" stroke-linejoin="round" stroke-miterlimit="10" d="
					M575.99,1090.06c24.33,17.421,66.04,12.94,100.439-3.06"/>
				
					<path fill="none" stroke="#000000" stroke-width="4" stroke-linecap="round" stroke-linejoin="round" stroke-miterlimit="10" d="
					M672.39,1040.64c-0.59,13.351,1.42,29.971,4.051,46.36c4.42,27.64,10.579,54.61,8.939,64.06"/>
				
					<path fill="none" stroke="#000000" stroke-width="4" stroke-linecap="round" stroke-linejoin="round" stroke-miterlimit="10" d="
					M573.89,1029.31c0,22.15,0.511,42.91,1.391,60.79c1.81,36.45,5.2,60.96,9.08,60.96"/>
			</g>
		</g>
	</g>
</g>
<g id="Layer_3" display="none">
	
		<text transform="matrix(0.9999 -0.014 0.014 0.9999 478.0317 461.8901)" display="inline" font-family="'MyriadPro-Regular'" font-size="48">ARIA</text>
	<g display="inline">
		<path fill="#FAD6B4" stroke="#000000" stroke-width="4" stroke-miterlimit="10" d=""/>
	</g>
</g>
</svg>
