<?xml version="1.0" encoding="utf-8"?>
<!-- Generator: Adobe Illustrator 16.0.0, SVG Export Plug-In . SVG Version: 6.00 Build 0)  -->
<!DOCTYPE svg PUBLIC "-//W3C//DTD SVG 1.1//EN" "http://www.w3.org/Graphics/SVG/1.1/DTD/svg11.dtd">
<svg version="1.1" id="Layer_2" xmlns="http://www.w3.org/2000/svg" xmlns:xlink="http://www.w3.org/1999/xlink" x="0px" y="0px"
	 width="1000px" height="200px" viewBox="0 0 1000 200" enable-background="new 0 0 1000 200" xml:space="preserve">
<g id="g165_1_" transform="translate(16.268656,-4.9253731)">
	<path id="path94_1_" stroke="#000000" d="
		M597.209,105.857c0.089-2.401,1.214-4.643,3.469-5.664c2.058-0.932,4.512-0.743,6.561,0.112c2.229,0.93,4.089,2.723,4.864,5.037
		c1.039,3.097-0.017,6.411-1.623,9.11c-0.919,1.546-2.338,2.614-3.663,3.812c-2.699,2.44-5.432,4.844-8.204,7.199
		c-3.295,2.799-6.644,5.543-10.117,8.118c-3.766,2.792-7.765,5.176-11.857,7.456c-10.585,5.898-21.733,10.851-33.346,14.348
		c-5.91,1.78-11.949,3.17-17.969,4.526c-6.169,1.39-12.382,2.617-18.651,3.463c-12.195,1.646-24.723,1.816-36.695-1.353
		c-10.157-2.689-20.047-7.448-27.809-14.619c-7.65-7.068-13.36-17.175-14.07-27.696c-0.294-4.351,0.311-8.922,2.717-12.638
		c2.079-3.208,4.95-5.888,7.886-8.301c4.857-3.991,10.229-7.497,15.788-10.437c-14.232-7.011-30.057-12.697-46.133-12.424
		c-10.263,0.174-20.581,3.144-28.411,9.992c-6.296,5.508-10.544,13.136-12.094,21.343c-1.362,7.213-0.723,15.098,2.817,21.625
		c3.344,6.166,9.278,10.293,16.322,10.841c5.918,0.461,14.527,0.075,17.846,6.268c2.068,3.859,0.354,8.728-2.641,11.586
		c-4.137,3.948-10.599,4.819-15.877,3.057c-6.624-2.212-11.751-7.722-15.382-13.488c-4.87-7.734-7.592-16.753-8.644-25.79
		c-0.616-5.292-0.652-10.647-0.154-15.951c0.456-4.856,1.872-9.125,4.696-13.137c2.969-4.217,6.86-7.741,10.993-10.791
		c4.253-3.139,8.892-6.005,13.712-8.191c7.364-3.34,15.768-4.026,23.756-3.846c8.179,0.185,16.335,1.362,24.321,3.103
		c5.198,1.133,10.48,2.409,15.446,4.35c0.205,0.08,1.58,0.489,1.58,0.804c-2.25-7.977-3.532-16.718-1.415-24.87
		c1.588-6.115,5.272-11.388,10.607-14.805c5.751-3.684,12.698-5.089,19.442-5.313c4.023-0.134,8.057,0.15,12.039,0.723
		c2.156,0.31,4.299,0.706,6.426,1.175c2.52,0.556,4.835,2.184,7.024,3.525c8.159,4.998,15.449,11.364,21.193,19.036
		c5.141,6.865,8.949,14.616,11.762,22.699c2.802,8.049,4.656,16.389,6.241,24.751c0.798,4.207,1.527,8.426,2.272,12.643
		c0.771,4.361,1.486,8.74,3.064,12.899c2.059,5.425,5.787,10.958,11.868,12.126c5.337,1.025,10.662-1.541,14.731-4.806
		C591.212,129.99,596.766,117.68,597.209,105.857C597.653,93.782,596.058,136.543,597.209,105.857z"/>
	<path id="path97_1_" stroke="#000000" d="M389.061,19.858
		c1.945,2.398,0.313,5.728-0.784,8.121c-1.351,2.943-3.169,6.256-2.544,9.611c0.351,1.882,1.514,3.368,2.947,4.578
		c1.777,1.5,3.649,2.885,5.567,4.199c3.66,2.507,7.494,4.745,11.166,7.232c3.452,2.337,6.782,4.937,9.415,8.196
		c1.339,1.658,2.48,3.472,3.379,5.405c0.961,2.068,1.926,4.474,1.981,6.772c0.19,7.893-1.417,15.912-6.235,22.326
		c-8.435,11.228-23.245,14.901-35.714,19.689c-1.603,0.615-3.197,1.253-4.772,1.934c-1.925,0.831-3.919,1.662-5.473,3.111
		c-1.213,1.131-1.881,2.535-2.076,4.169c-0.115,0.967-0.045,2.218-0.906,2.875c-1.442,1.101-4.04,0.623-5.692,0.56
		c-1.221-0.047-3.35,0.077-4.056-1.199c-0.676-1.221-0.34-3.214,0.023-4.485c0.419-1.467,1.252-2.769,2.335-3.834
		c2.586-2.545,6.237-3.856,9.635-4.9c4.305-1.323,8.726-2.231,13.094-3.315c9.103-2.259,17.979-5.729,25.127-11.981
		c3.355-2.935,6.312-6.534,7.788-10.792c1.229-3.544,1.037-7.16-0.154-10.688c-2.018-5.981-6.86-10.313-12.144-13.47
		c-5.681-3.395-11.944-5.675-18.113-8.002c-4.903-1.85-10.432-3.576-14.515-6.995c-6.376-5.34-2.722-14.862,1.312-20.468
		c2.483-3.452,5.582-6.384,9.349-8.389C381.828,18.61,386.574,16.792,389.061,19.858C393.435,25.253,385.68,15.689,389.061,19.858z"
		/>
</g>
<line fill="none" stroke="#000000" x1="345" y1="69.5" x2="34" y2="69.5"/>
<line fill="none" stroke="#000000" x1="345" y1="111.5" x2="34" y2="111.5"/>
<line fill="none" stroke="#000000" x1="967" y1="63.5" x2="656" y2="63.5"/>
<line fill="none" stroke="#000000" x1="967" y1="105.5" x2="656" y2="105.5"/>
</svg>
